<svg xmlns="http://www.w3.org/2000/svg" width="18" height="18" viewBox="0 0 18 18" fill="none">
  <mask id="mask0_1_645" style="mask-type:alpha" maskUnits="userSpaceOnUse" x="0" y="0" width="18" height="18">
    <rect width="18" height="18" fill="#D9D9D9"/>
  </mask>
  <g mask="url(#mask0_1_645)">
    <path d="M7.94969 10.3497L6.33719 8.73719C6.19969 8.59969 6.02469 8.53094 5.81219 8.53094C5.59969 8.53094 5.42469 8.59969 5.28719 8.73719C5.14969 8.87469 5.08094 9.04969 5.08094 9.26219C5.08094 9.47469 5.14969 9.64969 5.28719 9.78719L7.42469 11.9247C7.57469 12.0747 7.74969 12.1497 7.94969 12.1497C8.14969 12.1497 8.32469 12.0747 8.47469 11.9247L12.7122 7.68719C12.8497 7.54969 12.9184 7.37469 12.9184 7.16219C12.9184 6.94969 12.8497 6.77469 12.7122 6.63719C12.5747 6.49969 12.3997 6.43094 12.1872 6.43094C11.9747 6.43094 11.7997 6.49969 11.6622 6.63719L7.94969 10.3497ZM8.99969 16.4997C7.96219 16.4997 6.98719 16.3028 6.07469 15.9091C5.16219 15.5153 4.36844 14.9809 3.69344 14.3059C3.01844 13.6309 2.48407 12.8372 2.09032 11.9247C1.69657 11.0122 1.49969 10.0372 1.49969 8.99969C1.49969 7.96219 1.69657 6.98719 2.09032 6.07469C2.48407 5.16219 3.01844 4.36844 3.69344 3.69344C4.36844 3.01844 5.16219 2.48407 6.07469 2.09032C6.98719 1.69657 7.96219 1.49969 8.99969 1.49969C10.0372 1.49969 11.0122 1.69657 11.9247 2.09032C12.8372 2.48407 13.6309 3.01844 14.3059 3.69344C14.9809 4.36844 15.5153 5.16219 15.9091 6.07469C16.3028 6.98719 16.4997 7.96219 16.4997 8.99969C16.4997 10.0372 16.3028 11.0122 15.9091 11.9247C15.5153 12.8372 14.9809 13.6309 14.3059 14.3059C13.6309 14.9809 12.8372 15.5153 11.9247 15.9091C11.0122 16.3028 10.0372 16.4997 8.99969 16.4997Z" fill="#17A98F"/>
  </g>
</svg>