<svg xmlns="http://www.w3.org/2000/svg" width="82" height="81" viewBox="0 0 82 81" fill="none">
  <g clip-path="url(#clip0_1_808)">
    <path d="M41 3.375L10.625 16.875V37.125C10.625 55.8563 23.585 73.3725 41 77.625C58.415 73.3725 71.375 55.8563 71.375 37.125V16.875L41 3.375ZM64.625 37.125C64.625 52.38 54.5675 66.4538 41 70.6387C27.4325 66.4538 17.375 52.38 17.375 37.125V21.2625L41 10.7663L64.625 21.2625V37.125ZM25.5087 39.1162L20.75 43.875L34.25 57.375L61.25 30.375L56.4912 25.5825L34.25 47.8237L25.5087 39.1162Z" fill="#071563"/>
    <path opacity="0.3" d="M17.375 21.2625V37.125C17.375 52.38 27.4325 66.4537 41 70.6387C54.5675 66.4875 64.625 52.38 64.625 37.125V21.2625L41 10.7662L17.375 21.2625ZM61.25 30.375L34.25 57.375L20.75 43.875L25.5087 39.1162L34.25 47.8237L56.4912 25.5825L61.25 30.375Z" fill="#4B1FED"/>
  </g>
  <defs>
    <clipPath id="clip0_1_808">
      <rect width="81" height="81" fill="white" transform="translate(0.5)"/>
    </clipPath>
  </defs>
</svg>