<svg height="24" viewBox="0 0 24 28" fill="none" xmlns="http://www.w3.org/2000/svg">
  <path d="m24 27.6-6.3-6 .756 2.4H3a3 3 0 0 1-3-3V3a3 3 0 0 1 3-3h18a3 3 0 0 1 3 3v24.6ZM12 6.96c-3.216 0-5.472 1.38-5.472 1.38C7.764 7.236 9.924 6.6 9.924 6.6l-.204-.204c-2.028.036-3.864 1.44-3.864 1.44-2.064 4.308-1.932 8.028-1.932 8.028C5.604 18.036 8.1 17.88 8.1 17.88l.852-1.08c-1.5-.324-2.448-1.656-2.448-1.656S8.76 16.68 12 16.68c3.24 0 5.496-1.536 5.496-1.536s-.948 1.332-2.448 1.656l.852 1.08s2.496.156 4.176-2.016c0 0 .132-3.72-1.932-8.028 0 0-1.836-1.404-3.864-1.44l-.204.204s2.16.636 3.396 1.74c0 0-2.256-1.38-5.472-1.38Zm-2.484 4.548c.78 0 1.416.684 1.404 1.524 0 .828-.624 1.524-1.404 1.524-.768 0-1.392-.696-1.392-1.524 0-.84.612-1.524 1.392-1.524Zm5.004 0c.78 0 1.404.684 1.404 1.524 0 .828-.624 1.524-1.404 1.524-.768 0-1.392-.696-1.392-1.524 0-.84.612-1.524 1.392-1.524Z" fill="#8C8C8C" />
</svg>