<svg xmlns="http://www.w3.org/2000/svg" width="82" height="81" viewBox="0 0 82 81" fill="none">
  <mask id="mask0_1_831" style="mask-type:alpha" maskUnits="userSpaceOnUse" x="0" y="0" width="82" height="81">
    <rect x="0.5" width="81" height="81" fill="#D9D9D9"/>
  </mask>
  <g mask="url(#mask0_1_831)">
    <path d="M41 45.225L50.7875 55.0125C51.4063 55.6313 52.1938 55.9406 53.15 55.9406C54.1063 55.9406 54.8937 55.6313 55.5125 55.0125C56.1313 54.3937 56.4406 53.6063 56.4406 52.65C56.4406 51.6938 56.1313 50.9063 55.5125 50.2875L45.725 40.5L55.5125 30.7125C56.1313 30.0938 56.4406 29.3062 56.4406 28.35C56.4406 27.3938 56.1313 26.6063 55.5125 25.9875C54.8937 25.3688 54.1063 25.0594 53.15 25.0594C52.1938 25.0594 51.4063 25.3688 50.7875 25.9875L41 35.775L31.2125 25.9875C30.5938 25.3688 29.8062 25.0594 28.85 25.0594C27.8938 25.0594 27.1063 25.3688 26.4875 25.9875C25.8688 26.6063 25.5594 27.3938 25.5594 28.35C25.5594 29.3062 25.8688 30.0938 26.4875 30.7125L36.275 40.5L26.4875 50.2875C25.8688 50.9063 25.5594 51.6938 25.5594 52.65C25.5594 53.6063 25.8688 54.3937 26.4875 55.0125C27.1063 55.6313 27.8938 55.9406 28.85 55.9406C29.8062 55.9406 30.5938 55.6313 31.2125 55.0125L41 45.225ZM41 74.25C36.3312 74.25 31.9438 73.3641 27.8375 71.5922C23.7312 69.8203 20.1594 67.4156 17.1219 64.3781C14.0844 61.3406 11.6797 57.7688 9.90781 53.6625C8.13594 49.5563 7.25 45.1688 7.25 40.5C7.25 35.8312 8.13594 31.4438 9.90781 27.3375C11.6797 23.2312 14.0844 19.6594 17.1219 16.6219C20.1594 13.5844 23.7312 11.1797 27.8375 9.40781C31.9438 7.63594 36.3312 6.75 41 6.75C45.6688 6.75 50.0563 7.63594 54.1625 9.40781C58.2688 11.1797 61.8406 13.5844 64.8781 16.6219C67.9156 19.6594 70.3203 23.2312 72.0922 27.3375C73.8641 31.4438 74.75 35.8312 74.75 40.5C74.75 45.1688 73.8641 49.5563 72.0922 53.6625C70.3203 57.7688 67.9156 61.3406 64.8781 64.3781C61.8406 67.4156 58.2688 69.8203 54.1625 71.5922C50.0563 73.3641 45.6688 74.25 41 74.25ZM41 67.5C48.5375 67.5 54.9219 64.8844 60.1531 59.6531C65.3844 54.4219 68 48.0375 68 40.5C68 32.9625 65.3844 26.5781 60.1531 21.3469C54.9219 16.1156 48.5375 13.5 41 13.5C33.4625 13.5 27.0781 16.1156 21.8469 21.3469C16.6156 26.5781 14 32.9625 14 40.5C14 48.0375 16.6156 54.4219 21.8469 59.6531C27.0781 64.8844 33.4625 67.5 41 67.5Z" fill="#1C1B1F"/>
  </g>
</svg>