<svg height="24" viewBox="0 0 24 23" fill="none" xmlns="http://www.w3.org/2000/svg">
  <path d="M12 0a12.19 12.19 0 0 0-4.592.897 12.017 12.017 0 0 0-3.893 2.555A11.68 11.68 0 0 0 0 11.786c0 5.209 3.444 9.628 8.208 11.196.6.094.792-.271.792-.59v-1.991c-3.324.707-4.032-1.58-4.032-1.58-.552-1.367-1.332-1.732-1.332-1.732-1.092-.73.084-.707.084-.707 1.2.082 1.836 1.214 1.836 1.214 1.044 1.791 2.808 1.26 3.492.978.108-.766.42-1.285.756-1.58-2.664-.294-5.46-1.307-5.46-5.798 0-1.308.456-2.357 1.236-3.194-.12-.294-.54-1.52.12-3.111 0 0 1.008-.318 3.3 1.202a11.5 11.5 0 0 1 3-.389c1.02 0 2.052.13 3 .39 2.292-1.521 3.3-1.203 3.3-1.203.66 1.591.24 2.817.12 3.111.78.837 1.236 1.886 1.236 3.194 0 4.502-2.808 5.492-5.484 5.787.432.365.828 1.084.828 2.18v3.23c0 .318.192.695.804.589C20.568 21.402 24 16.995 24 11.786c0-1.548-.31-3.08-.913-4.51a11.775 11.775 0 0 0-2.602-3.824A12.017 12.017 0 0 0 16.592.897 12.19 12.19 0 0 0 12 0Z" fill="#8C8C8C" />
</svg>