<svg xmlns="http://www.w3.org/2000/svg" width="24" height="24" viewBox="0 0 24 24" fill="none">
  <mask id="mask0_1_823" style="mask-type:alpha" maskUnits="userSpaceOnUse" x="0" y="0" width="24" height="24">
    <rect width="24" height="24" fill="#D9D9D9"/>
  </mask>
  <g mask="url(#mask0_1_823)">
    <path d="M7.85002 13L10.7 15.85C10.9 16.05 10.9959 16.2833 10.9875 16.55C10.9792 16.8167 10.8834 17.05 10.7 17.25C10.5 17.45 10.2625 17.5542 9.98752 17.5625C9.71252 17.5708 9.47502 17.475 9.27502 17.275L4.70002 12.7C4.50002 12.5 4.40002 12.2667 4.40002 12C4.40002 11.7333 4.50002 11.5 4.70002 11.3L9.27502 6.72501C9.47502 6.52501 9.71252 6.42918 9.98752 6.43751C10.2625 6.44585 10.5 6.55001 10.7 6.75001C10.8834 6.95001 10.9792 7.18335 10.9875 7.45001C10.9959 7.71668 10.9 7.95001 10.7 8.15001L7.85002 11H19C19.2834 11 19.5209 11.0958 19.7125 11.2875C19.9042 11.4792 20 11.7167 20 12C20 12.2833 19.9042 12.5208 19.7125 12.7125C19.5209 12.9042 19.2834 13 19 13H7.85002Z" fill="#1C1B1F"/>
  </g>
</svg>