<svg width="170" height="46" viewBox="0 0 170 46" fill="none" xmlns="http://www.w3.org/2000/svg">
<g clip-path="url(#clip0_1_267)">
<path d="M22.9429 1.89143L19.6646 0L0 11.3542V34.0607L0.755829 34.4982L3.27836 35.954L19.6646 45.4149L26.2194 41.6301V37.8454V18.9236L13.1097 11.3542L9.83322 13.2456L22.9429 20.8151V39.7387L19.6646 41.6301L3.27836 32.1693V13.2456L19.6646 3.78473L36.0527 13.2456V35.954L39.331 34.0607V11.3542L22.9429 1.89143Z" fill="#511CF7"/>
<path d="M16.3879 9.46091L29.4977 17.0304V39.7387L32.776 37.8454V15.1389L19.6644 7.56947L16.3879 9.46091Z" fill="#511CF7"/>
<path d="M75.5453 24.2592V34.1892H72.388V24.6799C72.388 21.5914 70.3532 20.575 68.633 20.575C66.9129 20.575 64.9135 21.5933 64.9135 24.6799V34.1892H61.7561V24.6799C61.7561 21.5914 59.7213 20.575 57.9658 20.575C56.2103 20.575 54.2462 21.5933 54.2462 24.6799V34.1892H51.0889V18.0487H54.2462V19.9792C55.4042 18.4713 57.1578 17.803 58.878 17.803C60.9128 17.803 63.0183 18.5755 64.1055 20.6457C65.3342 18.5402 67.544 17.803 69.5434 17.803C72.4904 17.803 75.5435 19.417 75.5435 24.2592H75.5453Z" fill="#1C1C1C"/>
<path d="M94.1767 18.0487V34.1892H91.0194V31.6983C89.8261 33.4185 87.9663 34.4703 85.4754 34.4703C80.9144 34.4703 77.6509 30.9257 77.6509 26.1189C77.6509 21.3122 80.9144 17.803 85.4754 17.803C87.9663 17.803 89.8261 18.8548 91.0194 20.5396V18.0487H94.1767ZM91.0194 26.1189C91.0194 22.9951 88.9846 20.7853 85.8961 20.7853C82.8076 20.7853 80.7375 22.9951 80.7375 26.1189C80.7375 29.2428 82.7723 31.4879 85.8961 31.4879C89.02 31.4879 91.0194 29.2074 91.0194 26.1189Z" fill="#1C1C1C"/>
<path d="M105.825 17.803V20.7853C103.649 20.8207 100.141 21.7683 100.141 25.9086V34.1892H96.9841V18.0487H100.141V21.0311C101.406 18.8213 103.58 17.8383 105.825 17.803Z" fill="#1C1C1C"/>
<path d="M108.281 34.1892V11.3821H111.473L111.438 34.1892H108.281Z" fill="#1C1C1C"/>
<path d="M113.404 26.1189C113.404 21.2414 116.807 17.7322 121.684 17.7322C126.562 17.7322 129.894 21.2414 129.894 26.1189C129.894 30.9964 126.527 34.5056 121.684 34.5056C116.842 34.5056 113.404 30.9276 113.404 26.1189ZM126.772 26.1189C126.772 23.0305 124.738 20.7853 121.684 20.7853C118.631 20.7853 116.561 23.0305 116.561 26.1189C116.561 29.2074 118.596 31.4879 121.684 31.4879C124.773 31.4879 126.772 29.172 126.772 26.1189Z" fill="#1C1C1C"/>
<path d="M154.421 18.0487L149.052 34.1892H145.93L142.14 23.0305L138.316 34.1892H135.194L129.896 18.0487H133.195L136.95 29.7324L141.019 18.0487H143.335L147.336 29.7324L151.126 18.0487H154.425H154.421Z" fill="#1C1C1C"/>
<path d="M170 26.1189V27.0311H157.298C157.614 29.9092 159.649 31.7672 162.456 31.7672C164.772 31.7672 166.247 30.7153 167.017 29.5909L169.227 31.1696C167.823 33.2044 165.403 34.5038 162.454 34.5038C157.542 34.5038 154.245 30.9257 154.245 26.1171C154.245 21.3084 157.402 17.7657 162.244 17.7657C167.086 17.7657 169.998 21.3103 169.998 26.1171L170 26.1189ZM157.298 24.961H167.053C166.667 22.2597 164.947 20.2938 162.246 20.2938C159.545 20.2938 157.685 22.1536 157.298 24.961Z" fill="#1C1C1C"/>
</g>
<defs>
<clipPath id="clip0_1_267">
<rect width="170" height="45.4149" fill="white"/>
</clipPath>
</defs>
</svg>
