<svg width="27" height="27" viewBox="0 0 27 27" fill="none" xmlns="http://www.w3.org/2000/svg">
<g id="Layer 2">
<g id="Layer 1">
<path id="path16" d="M4.73192 2.81695L4.09671 2.16445C4.07417 2.45506 3.95407 2.72952 3.7559 2.94327C3.55774 3.15703 3.29314 3.29753 3.00507 3.34197L3.65865 3.94802L27.0023 25.7112L4.73192 2.81695ZM6.27297 9.12481V22.1176C6.49491 21.8839 6.79662 21.7423 7.11815 21.7209C7.43968 21.6995 7.7575 21.7998 8.00847 22.002V13.2845L22.0777 27H24.5014L6.27297 9.12481ZM22.6589 6.12266C22.3238 6.12393 22.0014 5.99449 21.7601 5.76184V14.5555L7.95067 0.84108H5.27909L23.4973 18.6779V5.81207C23.2642 6.0129 22.9666 6.12314 22.6589 6.12266Z" fill="#349EA3"/>
<path id="path18" d="M2.80719 6.35541e-07C2.39854 -0.000319821 1.99897 0.120553 1.65902 0.347334C1.31906 0.574114 1.054 0.896614 0.897342 1.27405C0.740686 1.65148 0.699477 2.0669 0.778926 2.46775C0.858375 2.86861 1.05491 3.2369 1.34369 3.52605C1.63246 3.8152 2.00049 4.01222 2.40125 4.09219C2.802 4.17217 3.21746 4.1315 3.5951 3.97534C3.97274 3.81917 4.29559 3.55453 4.52281 3.21487C4.75004 2.87522 4.87143 2.47581 4.87164 2.06715C4.8715 1.51942 4.65404 0.994125 4.26699 0.606567C3.87994 0.219009 3.35493 0.00085913 2.80719 6.35541e-07ZM3.00327 3.33812C2.93844 3.34857 2.87286 3.35363 2.80719 3.35325C2.55139 3.35357 2.30125 3.27801 2.08839 3.13614C1.87554 2.99427 1.70954 2.79246 1.61141 2.55623C1.51327 2.32001 1.4874 2.05998 1.53707 1.80905C1.58674 1.55812 1.70971 1.32755 1.89044 1.14652C2.07116 0.965494 2.30152 0.842133 2.55237 0.792045C2.80322 0.741958 3.06329 0.767394 3.29968 0.865136C3.53607 0.962879 3.73816 1.12854 3.88039 1.34115C4.02261 1.55377 4.09858 1.80379 4.09869 2.05959V2.1606C4.07588 2.45173 3.95521 2.72656 3.75631 2.94037C3.55741 3.15418 3.29199 3.29437 3.00327 3.33812Z" fill="#349EA3"/>
<path id="path20" d="M22.6576 2.76567C22.1181 2.77801 21.6048 3.00099 21.2277 3.38691C20.8505 3.77282 20.6393 4.29103 20.6393 4.83066C20.6393 5.3703 20.8505 5.8885 21.2277 6.27442C21.6048 6.66033 22.1181 6.88331 22.6576 6.89565C22.9465 6.8966 23.2323 6.83582 23.4959 6.7174C23.9287 6.52553 24.2823 6.19076 24.4977 5.76917C24.713 5.34758 24.7769 4.8648 24.6787 4.40171C24.5804 3.93862 24.326 3.52336 23.9581 3.22551C23.5901 2.92765 23.131 2.76531 22.6576 2.76567ZM23.4959 5.81211C23.2719 6.00323 22.9894 6.11208 22.695 6.12062C22.4007 6.12916 22.1123 6.03688 21.8776 5.85907C21.643 5.68126 21.4761 5.4286 21.4047 5.14295C21.3332 4.85731 21.3616 4.55584 21.4849 4.2885C21.6083 4.02116 21.8193 3.804 22.083 3.67301C22.3467 3.54202 22.6473 3.50507 22.9348 3.56828C23.2224 3.63149 23.4797 3.79107 23.6642 4.02056C23.8487 4.25005 23.9492 4.53569 23.9491 4.83012C23.949 5.01683 23.9085 5.20131 23.8302 5.37084C23.752 5.54037 23.6379 5.69092 23.4959 5.81211Z" fill="#349EA3"/>
<path id="path22" d="M8.00669 21.1095C7.5978 20.9364 7.14404 20.8997 6.71263 21.0047C6.28123 21.1097 5.89513 21.3509 5.61155 21.6925C5.32797 22.0342 5.162 22.4581 5.13822 22.9015C5.11444 23.3448 5.23413 23.7841 5.47955 24.1541C5.72496 24.5241 6.08305 24.8052 6.50075 24.9558C6.91845 25.1063 7.37354 25.1183 7.79859 24.99C8.22364 24.8616 8.59603 24.5998 8.86059 24.2432C9.12515 23.8866 9.2678 23.4543 9.2674 23.0103C9.26742 22.6044 9.14786 22.2075 8.92364 21.8691C8.69943 21.5308 8.3805 21.266 8.00669 21.1079V21.1095ZM7.19646 24.3034C6.94121 24.3028 6.69185 24.2267 6.47985 24.0845C6.26786 23.9424 6.10274 23.7406 6.00536 23.5046C5.90797 23.2687 5.88269 23.0092 5.9327 22.7589C5.9827 22.5086 6.10576 22.2787 6.28632 22.0983C6.46688 21.9179 6.69686 21.795 6.94721 21.7452C7.19755 21.6954 7.45704 21.7209 7.6929 21.8185C7.92876 21.9161 8.13042 22.0814 8.2724 22.2935C8.41439 22.5056 8.49034 22.755 8.49066 23.0103C8.49073 23.18 8.45732 23.3481 8.39234 23.505C8.32736 23.6618 8.23209 23.8043 8.11198 23.9242C7.99186 24.0442 7.84927 24.1393 7.69236 24.2041C7.53545 24.2688 7.3673 24.302 7.19754 24.3018L7.19646 24.3034Z" fill="#349EA3"/>
</g>
</g>
</svg>
