<svg xmlns="http://www.w3.org/2000/svg" height="24" fill="#4B1FED" viewBox="0 -960 960 960" width="24"><path d="M387.692-267.692 416-296l-83.538-84H520v-40H332.462L416-504l-28.308-28.308L255.384-400l132.308 132.308Zm184.616-160L704.616-560 572.308-692.308 544-664l83.538 84H440v40h187.538L544-456l28.308 28.308ZM480.134-120q-74.673 0-140.41-28.339-65.737-28.34-114.365-76.922-48.627-48.582-76.993-114.257Q120-405.194 120-479.866q0-74.673 28.339-140.41 28.34-65.737 76.922-114.365 48.582-48.627 114.257-76.993Q405.194-840 479.866-840q74.673 0 140.41 28.339 65.737 28.34 114.365 76.922 48.627 48.582 76.993 114.257Q840-554.806 840-480.134q0 74.673-28.339 140.41-28.34 65.737-76.922 114.365-48.582 48.627-114.257 76.993Q554.806-120 480.134-120ZM480-160q134 0 227-93t93-227q0-134-93-227t-227-93q-134 0-227 93t-93 227q0 134 93 227t227 93Zm0-320Z"/></svg>