<svg height="24" viewBox="0 0 24 20" fill="none" xmlns="http://www.w3.org/2000/svg">
  <path d="M24 2.294a9.83 9.83 0 0 1-2.822.792 4.931 4.931 0 0 0 2.157-2.73 9.913 9.913 0 0 1-3.12 1.204C19.307.574 18.034 0 16.588 0c-2.696 0-4.899 2.203-4.899 4.922 0 .39.046.768.126 1.124A13.99 13.99 0 0 1 1.675.906a4.87 4.87 0 0 0-.665 2.467c0 1.71.86 3.224 2.19 4.084-.814 0-1.57-.23-2.236-.574v.035a4.925 4.925 0 0 0 3.946 4.83 4.843 4.843 0 0 1-2.214.08c.62 1.939 2.42 3.384 4.589 3.419a9.777 9.777 0 0 1-6.115 2.11c-.39 0-.78-.022-1.17-.068a13.933 13.933 0 0 0 7.549 2.214c9.04 0 14.007-7.503 14.007-14.008 0-.218 0-.424-.011-.642A9.833 9.833 0 0 0 24 2.294Z" fill="#8C8C8C" />
</svg>