<svg height="24" viewBox="0 0 28 20" fill="none" xmlns="http://www.w3.org/2000/svg">
  <path d="m11.2 14 7.266-4.2L11.2 5.6V14ZM27.384 3.038c.182.658.308 1.54.392 2.66.098 1.12.14 2.086.14 2.926L28 9.8c0 3.066-.224 5.32-.616 6.762-.35 1.26-1.162 2.072-2.422 2.422-.658.182-1.862.308-3.71.392a93.31 93.31 0 0 1-5.026.14L14 19.6c-5.866 0-9.52-.224-10.962-.616-1.26-.35-2.072-1.162-2.422-2.422-.182-.658-.308-1.54-.392-2.66a33.685 33.685 0 0 1-.14-2.926L0 9.8c0-3.066.224-5.32.616-6.762C.966 1.778 1.778.966 3.038.616 3.696.434 4.9.308 6.748.224a93.31 93.31 0 0 1 5.026-.14L14 0c5.866 0 9.52.224 10.962.616 1.26.35 2.072 1.162 2.422 2.422Z" fill="#8C8C8C" />
</svg>